<mxfile host="65bd71144e">
    <diagram id="VSOyLXHHpQ9-vn6jwXmK" name="Page-1">
        <mxGraphModel dx="752" dy="412" grid="1" gridSize="10" guides="1" tooltips="1" connect="1" arrows="1" fold="1" page="1" pageScale="1" pageWidth="827" pageHeight="1169" math="0" shadow="0">
            <root>
                <mxCell id="0"/>
                <mxCell id="3" parent="0"/>
                <mxCell id="7" value="" style="edgeStyle=none;html=1;" edge="1" parent="3" source="5" target="6">
                    <mxGeometry relative="1" as="geometry"/>
                </mxCell>
                <mxCell id="5" value="Smart Contract" style="shape=note;size=20;whiteSpace=wrap;html=1;" vertex="1" parent="3">
                    <mxGeometry x="20" y="280" width="100" height="60" as="geometry"/>
                </mxCell>
                <mxCell id="10" value="" style="edgeStyle=none;html=1;" edge="1" parent="3" source="6">
                    <mxGeometry relative="1" as="geometry">
                        <mxPoint x="370" y="310" as="targetPoint"/>
                    </mxGeometry>
                </mxCell>
                <mxCell id="15" value="" style="edgeStyle=none;html=1;" edge="1" parent="3" source="6" target="14">
                    <mxGeometry relative="1" as="geometry"/>
                </mxCell>
                <mxCell id="6" value="&lt;b&gt;S&lt;/b&gt;olc Compiler&amp;nbsp;" style="whiteSpace=wrap;html=1;fillColor=#f0a30a;fontColor=#000000;strokeColor=#BD7000;" vertex="1" parent="3">
                    <mxGeometry x="190" y="280" width="120" height="60" as="geometry"/>
                </mxCell>
                <mxCell id="17" value="" style="edgeStyle=none;html=1;" edge="1" parent="3" source="13" target="16">
                    <mxGeometry relative="1" as="geometry"/>
                </mxCell>
                <mxCell id="19" value="" style="edgeStyle=none;html=1;" edge="1" parent="3" source="13" target="18">
                    <mxGeometry relative="1" as="geometry"/>
                </mxCell>
                <mxCell id="13" value="&lt;b&gt;{&amp;nbsp; .bin }&lt;/b&gt;" style="shape=note;size=20;whiteSpace=wrap;html=1;dashed=1;dashPattern=1 2;fillColor=#647687;fontColor=#ffffff;strokeColor=#314354;" vertex="1" parent="3">
                    <mxGeometry x="370" y="280" width="100" height="60" as="geometry"/>
                </mxCell>
                <mxCell id="24" value="" style="edgeStyle=none;html=1;" edge="1" parent="3" source="14" target="16">
                    <mxGeometry relative="1" as="geometry"/>
                </mxCell>
                <mxCell id="14" value="&lt;b&gt;{&amp;nbsp; .abi&amp;nbsp; }&lt;/b&gt;" style="shape=note;size=20;whiteSpace=wrap;html=1;dashed=1;dashPattern=1 2;fillColor=#647687;fontColor=#ffffff;strokeColor=#314354;" vertex="1" parent="3">
                    <mxGeometry x="200" y="465" width="100" height="50" as="geometry"/>
                </mxCell>
                <mxCell id="25" value="Generate" style="edgeStyle=none;html=1;" edge="1" parent="3" source="16" target="23">
                    <mxGeometry relative="1" as="geometry"/>
                </mxCell>
                <mxCell id="16" value="&lt;b&gt;abigen&lt;/b&gt;" style="rounded=0;whiteSpace=wrap;html=1;dashed=1;dashPattern=1 2;fillColor=#76608a;fontColor=#ffffff;strokeColor=#432D57;" vertex="1" parent="3">
                    <mxGeometry x="360" y="460" width="120" height="60" as="geometry"/>
                </mxCell>
                <mxCell id="18" value="" style="whiteSpace=wrap;html=1;fillColor=#647687;strokeColor=#314354;fontColor=#ffffff;dashed=1;dashPattern=1 2;" vertex="1" parent="3">
                    <mxGeometry x="540" y="260" width="170" height="100" as="geometry"/>
                </mxCell>
                <mxCell id="20" value="&lt;b&gt;EVM&lt;/b&gt;" style="rounded=0;whiteSpace=wrap;html=1;dashed=1;dashPattern=1 2;" vertex="1" parent="3">
                    <mxGeometry x="565" y="280" width="120" height="60" as="geometry"/>
                </mxCell>
                <mxCell id="26" value="" style="edgeStyle=none;html=1;" edge="1" parent="3" source="23" target="20">
                    <mxGeometry relative="1" as="geometry"/>
                </mxCell>
                <mxCell id="23" value="&lt;b&gt;.go file&amp;nbsp;&lt;/b&gt;" style="shape=note;size=20;whiteSpace=wrap;html=1;dashed=1;dashPattern=1 2;fillColor=#647687;fontColor=#ffffff;strokeColor=#314354;" vertex="1" parent="3">
                    <mxGeometry x="575" y="450" width="100" height="80" as="geometry"/>
                </mxCell>
            </root>
        </mxGraphModel>
    </diagram>
</mxfile>